# xmcd
#
# Track frame offsets:
#	150
#	13747
#	26457
#	47190
#	65770
#	89237
#	106577
#	124020
#	138652
#	154084
#	175467
#	200052
#
# Disc length: 2890 seconds
#
# Revision: 1
# Processed by: cddbd v1.5.2PL0 Copyright (c) Steve Scherf et al.
# Submitted via: EZCDAudioConverter 3.1.0.1
#
DISCID=ae0b480c
DTITLE=Denny Freeman - A Tone for My Sins
DYEAR=1997
DGENRE=Blues
TTITLE0=Vigilante
TTITLE1=Wah Wah Toosie
TTITLE2=It's a Love Thing
TTITLE3=Swing Set
TTITLE4=Cat Fight
TTITLE5=Don't Stop Now
TTITLE6=Stealin' Berries, Pt  2
TTITLE7=Swamp Box
TTITLE8=Aftershock
TTITLE9=That's What She Said
TTITLE10=Soul Burden
TTITLE11=Rhythm Method
EXTD=
EXTT0=
EXTT1=
EXTT2=
EXTT3=
EXTT4=
EXTT5=
EXTT6=
EXTT7=
EXTT8=
EXTT9=
EXTT10=
EXTT11=
PLAYORDER=
